HIERARCHY
ROOT Hips
{
	OFFSET 0.000000 100.481300 0.000000
	CHANNELS 6 Xposition Yposition Zposition Xrotation Yrotation Zrotation
	JOINT Spine
	{
		OFFSET -0.279200 12.230698 -2.892100
		CHANNELS 3 Xrotation Yrotation Zrotation
		JOINT Spine1
		{
			OFFSET -0.325700 14.269203 -3.374200
			CHANNELS 3 Xrotation Yrotation Zrotation
			JOINT Spine2
			{
				OFFSET -0.372300 16.307602 -0.352600
				CHANNELS 3 Xrotation Yrotation Zrotation
				JOINT Neck
				{
					OFFSET -0.418800 17.814194 8.416900
					CHANNELS 3 Xrotation Yrotation Zrotation
					JOINT Head
					{
						OFFSET 0.000000 7.031097 3.806800
						CHANNELS 3 Xrotation Yrotation Zrotation
						JOINT HeadTop_End
						{
							OFFSET 0.000000 24.646606 12.978600
							CHANNELS 3 Xrotation Yrotation Zrotation
							End Site
							{
								OFFSET 0.000000 27.854965 0.000000
							}
						}
					}
				}
				JOINT LeftShoulder
				{
					OFFSET 16.952999 14.495407 -7.737500
					CHANNELS 3 Xrotation Yrotation Zrotation
					JOINT LeftArm
					{
						OFFSET 9.308998 -2.777710 0.208600
						CHANNELS 3 Xrotation Yrotation Zrotation
						JOINT LeftForeArm
						{
							OFFSET 29.972298 0.000000 0.000000
							CHANNELS 3 Xrotation Yrotation Zrotation
							JOINT LeftHand
							{
								OFFSET 26.026505 0.000000 0.000000
								CHANNELS 3 Xrotation Yrotation Zrotation
								JOINT LeftHandThumb1
								{
									OFFSET 12.240501 -7.147949 9.207150
									CHANNELS 3 Xrotation Yrotation Zrotation
									JOINT LeftHandThumb2
									{
										OFFSET 4.138618 -2.389435 2.389433
										CHANNELS 3 Xrotation Yrotation Zrotation
										JOINT LeftHandThumb3
										{
											OFFSET 2.726913 -1.574387 1.574386
											CHANNELS 3 Xrotation Yrotation Zrotation
											JOINT LeftHandThumb4
											{
												OFFSET 3.941010 -2.275345 2.275342
												CHANNELS 3 Xrotation Yrotation Zrotation
												End Site
												{
													OFFSET -0.005798 5.087799 0.009903
												}
											}
										}
									}
								}
								JOINT LeftHandIndex1
								{
									OFFSET 24.424698 -1.985611 5.953459
									CHANNELS 3 Xrotation Yrotation Zrotation
									JOINT LeftHandIndex2
									{
										OFFSET 6.426697 0.000000 0.000000
										CHANNELS 3 Xrotation Yrotation Zrotation
										JOINT LeftHandIndex3
										{
											OFFSET 5.337898 0.000000 0.000000
											CHANNELS 3 Xrotation Yrotation Zrotation
											JOINT LeftHandIndex4
											{
												OFFSET 4.409401 0.000000 0.000000
												CHANNELS 3 Xrotation Yrotation Zrotation
												End Site
												{
													OFFSET 0.000000 4.409363 0.014373
												}
											}
										}
									}
								}
								JOINT LeftHandMiddle1
								{
									OFFSET 23.810104 0.000000 0.000000
									CHANNELS 3 Xrotation Yrotation Zrotation
									JOINT LeftHandMiddle2
									{
										OFFSET 7.176498 0.000000 0.000000
										CHANNELS 3 Xrotation Yrotation Zrotation
										JOINT LeftHandMiddle3
										{
											OFFSET 6.774902 0.000000 0.000000
											CHANNELS 3 Xrotation Yrotation Zrotation
											JOINT LeftHandMiddle4
											{
												OFFSET 5.403328 0.000000 0.000000
												CHANNELS 3 Xrotation Yrotation Zrotation
												End Site
												{
													OFFSET -0.027702 5.403244 0.017414
												}
											}
										}
									}
								}
								JOINT LeftHandRing1
								{
									OFFSET 22.908401 -0.839279 -6.020567
									CHANNELS 3 Xrotation Yrotation Zrotation
									JOINT LeftHandRing2
									{
										OFFSET 6.337502 0.000000 0.000000
										CHANNELS 3 Xrotation Yrotation Zrotation
										JOINT LeftHandRing3
										{
											OFFSET 5.779297 0.000000 0.000000
											CHANNELS 3 Xrotation Yrotation Zrotation
											JOINT LeftHandRing4
											{
												OFFSET 4.965698 0.000000 0.000000
												CHANNELS 3 Xrotation Yrotation Zrotation
												End Site
												{
													OFFSET 0.000000 4.965668 0.016186
												}
											}
										}
									}
								}
								JOINT LeftHandPinky1
								{
									OFFSET 20.037003 -1.530319 -10.950146
									CHANNELS 3 Xrotation Yrotation Zrotation
									JOINT LeftHandPinky2
									{
										OFFSET 5.254700 0.000000 0.000000
										CHANNELS 3 Xrotation Yrotation Zrotation
										JOINT LeftHandPinky3
										{
											OFFSET 4.810204 0.000000 0.000000
											CHANNELS 3 Xrotation Yrotation Zrotation
											JOINT LeftHandPinky4
											{
												OFFSET 3.647202 0.000000 0.000000
												CHANNELS 3 Xrotation Yrotation Zrotation
												End Site
												{
													OFFSET 0.000000 3.647186 0.011889
												}
											}
										}
									}
								}
							}
						}
					}
				}
				JOINT RightShoulder
				{
					OFFSET -15.141001 14.495407 -7.737500
					CHANNELS 3 Xrotation Yrotation Zrotation
					JOINT RightArm
					{
						OFFSET -9.308998 -2.777710 0.208500
						CHANNELS 3 Xrotation Yrotation Zrotation
						JOINT RightForeArm
						{
							OFFSET -29.972300 0.000000 0.000000
							CHANNELS 3 Xrotation Yrotation Zrotation
							JOINT RightHand
							{
								OFFSET -26.026505 0.000000 0.000000
								CHANNELS 3 Xrotation Yrotation Zrotation
								JOINT RightHandThumb1
								{
									OFFSET -12.240601 -7.148026 9.207092
									CHANNELS 3 Xrotation Yrotation Zrotation
									JOINT RightHandThumb2
									{
										OFFSET -4.138618 -2.389435 2.389433
										CHANNELS 3 Xrotation Yrotation Zrotation
										JOINT RightHandThumb3
										{
											OFFSET -2.726974 -1.574417 1.574421
											CHANNELS 3 Xrotation Yrotation Zrotation
											JOINT RightHandThumb4
											{
												OFFSET -3.941010 -2.275345 2.275343
												CHANNELS 3 Xrotation Yrotation Zrotation
												End Site
												{
													OFFSET 0.005814 5.087799 0.009927
												}
											}
										}
									}
								}
								JOINT RightHandIndex1
								{
									OFFSET -24.424698 -1.985657 5.953444
									CHANNELS 3 Xrotation Yrotation Zrotation
									JOINT RightHandIndex2
									{
										OFFSET -6.426697 0.000000 0.000000
										CHANNELS 3 Xrotation Yrotation Zrotation
										JOINT RightHandIndex3
										{
											OFFSET -5.337898 0.000000 0.000000
											CHANNELS 3 Xrotation Yrotation Zrotation
											JOINT RightHandIndex4
											{
												OFFSET -4.409401 0.000000 0.000000
												CHANNELS 3 Xrotation Yrotation Zrotation
												End Site
												{
													OFFSET 0.000000 4.409363 0.014408
												}
											}
										}
									}
								}
								JOINT RightHandMiddle1
								{
									OFFSET -23.810097 0.000000 0.000000
									CHANNELS 3 Xrotation Yrotation Zrotation
									JOINT RightHandMiddle2
									{
										OFFSET -7.176498 0.000000 0.000000
										CHANNELS 3 Xrotation Yrotation Zrotation
										JOINT RightHandMiddle3
										{
											OFFSET -6.774902 0.000000 0.000000
											CHANNELS 3 Xrotation Yrotation Zrotation
											JOINT RightHandMiddle4
											{
												OFFSET -5.403328 0.000000 0.000000
												CHANNELS 3 Xrotation Yrotation Zrotation
												End Site
												{
													OFFSET 0.027702 5.403244 0.017457
												}
											}
										}
									}
								}
								JOINT RightHandRing1
								{
									OFFSET -22.908302 -0.839325 -6.020576
									CHANNELS 3 Xrotation Yrotation Zrotation
									JOINT RightHandRing2
									{
										OFFSET -6.337502 0.000000 0.000000
										CHANNELS 3 Xrotation Yrotation Zrotation
										JOINT RightHandRing3
										{
											OFFSET -5.779297 0.000000 0.000000
											CHANNELS 3 Xrotation Yrotation Zrotation
											JOINT RightHandRing4
											{
												OFFSET -4.965698 0.000000 0.000000
												CHANNELS 3 Xrotation Yrotation Zrotation
												End Site
												{
													OFFSET 0.000000 4.965668 0.016226
												}
											}
										}
									}
								}
								JOINT RightHandPinky1
								{
									OFFSET -20.037003 -1.530334 -10.950259
									CHANNELS 3 Xrotation Yrotation Zrotation
									JOINT RightHandPinky2
									{
										OFFSET -5.254700 0.000000 0.000000
										CHANNELS 3 Xrotation Yrotation Zrotation
										JOINT RightHandPinky3
										{
											OFFSET -4.810204 0.000000 0.000000
											CHANNELS 3 Xrotation Yrotation Zrotation
											JOINT RightHandPinky4
											{
												OFFSET -3.647202 0.000000 0.000000
												CHANNELS 3 Xrotation Yrotation Zrotation
												End Site
												{
													OFFSET 0.000000 3.647186 0.011917
												}
											}
										}
									}
								}
							}
						}
					}
				}
			}
		}
	}
	JOINT LeftUpLeg
	{
		OFFSET 15.427100 -6.655098 0.678600
		CHANNELS 3 Xrotation Yrotation Zrotation
		JOINT LeftLeg
		{
			OFFSET 4.081073 -39.591068 13.024000
			CHANNELS 3 Xrotation Yrotation Zrotation
			JOINT LeftFoot
			{
				OFFSET -4.081074 -37.707932 -15.979700
				CHANNELS 3 Xrotation Yrotation Zrotation
				JOINT LeftToeBase
				{
					OFFSET 5.346399 -15.068900 20.645000
					CHANNELS 3 Xrotation Yrotation Zrotation
					JOINT LeftToe_End
					{
						OFFSET 2.754700 0.931300 11.300900
						CHANNELS 3 Xrotation Yrotation Zrotation
						End Site
						{
							OFFSET 0.000000 11.669021 0.000000
						}
					}
				}
			}
		}
	}
	JOINT RightUpLeg
	{
		OFFSET -15.569500 -6.655098 0.678600
		CHANNELS 3 Xrotation Yrotation Zrotation
		JOINT RightLeg
		{
			OFFSET -4.081825 -39.591045 13.023800
			CHANNELS 3 Xrotation Yrotation Zrotation
			JOINT RightFoot
			{
				OFFSET 4.081824 -37.707954 -15.979600
				CHANNELS 3 Xrotation Yrotation Zrotation
				JOINT RightToeBase
				{
					OFFSET -5.346400 -15.068900 20.645000
					CHANNELS 3 Xrotation Yrotation Zrotation
					JOINT RightToe_End
					{
						OFFSET -2.754700 0.931300 11.300900
						CHANNELS 3 Xrotation Yrotation Zrotation
						End Site
						{
							OFFSET 0.000000 11.669021 0.000000
						}
					}
				}
			}
		}
	}
}
MOTION
Frames: 5
Frame Time: 0.033333
1.306527 29.511101 -3.145561 39.025457 13.559520 1.499836 9.878628 3.617779 -5.296368 19.487991 -1.521393 3.122684 19.487996 -1.521385 3.122678 -23.696862 3.822954 4.241419 -30.963109 24.448211 10.476635 0.000001 -0.000001 0.000001 1.883292 8.650364 15.688970 -54.257766 -1.069452 -69.289428 -0.004259 -125.764669 -0.003837 -61.119169 -10.227386 37.994765 -15.543499 -1.870124 1.898211 -2.564656 0.240902 4.704707 -0.000003 -0.000002 -0.000003 0.000003 -0.000001 0.000001 5.095910 11.792698 -19.978513 0.193000 1.635359 -17.247406 0.000002 0.000001 -0.000000 0.000002 0.000001 -0.000001 6.307476 3.973255 -36.785807 -0.268772 -1.004731 -24.040832 0.000002 -0.000002 0.000004 0.000003 0.000001 -0.000002 0.425945 5.205799 -45.087308 -0.806999 -1.830736 -31.057905 -0.000000 -0.000002 0.000002 0.000000 -0.000001 -0.000000 -0.671282 6.687828 -58.194694 -1.517133 -5.226351 -31.021428 0.000001 0.000001 -0.000000 -0.000000 -0.000001 0.000001 -16.841674 12.246769 -22.451807 -49.495133 9.362469 66.777605 -0.000467 49.906468 0.000503 46.941004 -6.785379 -13.850956 8.726805 6.192226 31.582784 -2.390872 -0.856581 -4.532480 0.000007 0.000009 -0.000013 -0.000002 0.000001 0.000002 4.960595 10.434692 -3.970637 0.005029 -0.370376 1.079759 -0.000000 -0.000001 0.000002 -0.000001 0.000000 -0.000003 9.137335 -2.533949 -8.358912 0.001959 -0.140811 0.013441 -0.000000 -0.000013 0.000002 0.000000 0.000000 -0.000002 0.715842 -12.691289 -9.367589 0.010756 -1.181899 0.048274 0.000000 -0.000000 0.000003 0.000000 0.000000 0.000001 5.024142 -26.092788 0.569620 -0.099764 -1.308656 -0.000010 -0.000001 -0.000001 -0.000001 -0.000000 -0.000001 0.000001 -102.783637 -36.860642 38.654909 33.328536 -0.244114 -2.948177 49.130456 -9.658370 -45.786084 0.026879 4.994030 -16.465407 0.000000 0.000002 0.000000 -39.321457 11.219826 -59.946105 107.963304 31.093907 18.231597 17.024395 18.767130 -17.772622 36.997034 69.487831 32.764332 0.000001 -0.000002 -0.000000 
1.230926 29.538628 -3.122284 39.510848 13.645742 1.558513 9.917460 3.719462 -5.288134 19.524282 -1.131600 3.091792 19.524266 -1.131608 3.091797 -24.316580 4.035493 3.694863 -33.028749 25.584227 11.012405 0.000003 0.000001 0.000001 2.006431 9.215561 16.102191 -55.584971 -0.218351 -69.613691 0.001615 -125.185210 0.000931 -66.194792 -16.591511 41.969443 -15.700952 -3.015972 2.085550 -2.517827 0.158510 4.963827 -0.000001 0.000001 -0.000005 -0.000002 -0.000003 0.000001 5.133809 11.842006 -19.528510 0.187603 1.624793 -17.090192 0.000000 -0.000001 -0.000000 0.000004 -0.000000 -0.000001 6.732526 4.055364 -36.165080 -0.268827 -1.006375 -24.040608 -0.000004 -0.000002 -0.000001 -0.000002 0.000001 0.000000 0.532079 5.270297 -44.469589 -0.784118 -1.797858 -30.647523 0.000002 -0.000001 0.000002 0.000003 0.000001 -0.000000 -0.858767 6.795657 -57.537076 -1.512454 -5.184124 -30.861769 0.000003 -0.000002 -0.000005 0.000001 -0.000003 -0.000004 -16.772728 11.937905 -22.872975 -48.561737 7.485071 66.391980 -0.005442 52.712466 0.004496 47.757772 -7.489182 -12.894326 8.725727 6.192632 31.582784 -2.427425 -0.767157 -4.522079 0.000007 0.000009 -0.000012 -0.000001 0.000000 0.000002 4.959471 10.436994 -3.937659 0.004919 -0.364299 0.951037 -0.000000 0.000002 -0.000001 -0.000001 0.000000 -0.000003 9.138566 -2.526255 -8.326917 0.001908 -0.141731 0.013534 -0.000002 -0.000016 0.000001 -0.000000 -0.000001 -0.000001 0.716209 -12.689183 -9.334696 0.010785 -1.181100 0.048231 -0.000000 -0.000000 0.000002 0.000000 0.000000 -0.000000 5.025157 -26.087814 0.602541 -0.101642 -1.319386 -0.000034 -0.000000 -0.000000 -0.000002 0.000000 -0.000001 -0.000000 -102.810289 -36.907122 38.686970 33.154602 -0.223867 -2.914342 49.065029 -9.433604 -46.183939 0.026879 4.994030 -16.465406 -0.000000 0.000002 -0.000001 -39.976325 11.172194 -59.892918 108.107305 31.037541 18.178823 16.898139 18.416172 -17.810260 38.208184 69.447840 31.579602 0.000001 -0.000000 0.000000 
1.123842 29.600868 -3.086693 40.056768 13.738038 1.669450 9.948750 3.592968 -5.288657 19.605863 -1.178089 3.049665 19.605894 -1.178085 3.049661 -25.348195 4.236873 3.191806 -35.383040 26.911425 11.182984 -0.000001 -0.000003 -0.000000 1.970212 9.108774 15.846742 -55.716913 6.011825 -68.074078 0.006700 -126.454764 0.004974 -70.034069 -22.253354 40.397683 -16.127335 -5.171758 1.959348 -2.365715 -0.042272 5.513719 -0.000002 -0.000000 0.000003 0.000000 0.000001 -0.000002 4.819854 11.868742 -17.180429 0.168901 1.587566 -16.538951 0.000000 0.000000 -0.000000 0.000002 0.000000 0.000000 6.995955 4.314563 -34.134482 -0.269052 -1.012173 -24.040229 -0.000000 -0.000002 0.000002 -0.000001 0.000000 0.000001 0.650146 5.415524 -43.088166 -0.739038 -1.731658 -29.826463 0.000003 -0.000000 0.000002 -0.000001 -0.000000 -0.000001 -0.898330 6.905898 -56.933998 -1.500166 -5.067659 -30.422233 -0.000002 -0.000003 0.000002 -0.000000 0.000000 -0.000000 -16.772959 11.862544 -22.815721 -48.463600 6.914149 66.382793 -0.013132 54.642739 0.010877 48.484713 -8.167169 -12.446280 8.725060 6.192919 31.582754 -2.450285 -0.711244 -4.515542 0.000007 0.000010 -0.000014 0.000000 -0.000001 0.000001 4.956669 10.442705 -3.856099 0.004717 -0.349276 0.632697 0.000000 0.000002 -0.000002 0.000001 0.000002 -0.000002 9.141588 -2.507188 -8.247809 0.001732 -0.144072 0.013757 -0.000001 -0.000013 0.000004 -0.000001 0.000000 0.000000 0.717078 -12.683971 -9.253380 0.010871 -1.179096 0.048155 0.000000 -0.000000 0.000001 0.000000 -0.000000 0.000001 5.027676 -26.075364 0.683965 -0.106384 -1.345960 -0.000007 0.000000 -0.000001 0.000004 -0.000000 0.000000 0.000002 -102.742137 -36.958837 38.746041 32.958525 -0.217427 -2.884068 48.950456 -9.104429 -46.706022 0.026879 4.994027 -16.465406 0.000000 -0.000001 0.000001 -40.652705 11.243236 -59.901346 108.211315 31.003458 18.141913 16.799028 18.176846 -17.744398 38.779365 69.422172 31.057570 0.000000 -0.000001 -0.000000 
1.009198 29.746986 -2.993477 40.477873 13.827149 1.846813 9.933903 3.149604 -5.273388 19.687959 -1.953794 3.061593 19.687986 -1.953790 3.061591 -26.493873 4.380541 2.837389 -37.828620 28.483262 10.780672 -0.000000 -0.000001 -0.000000 1.833186 8.407612 15.236030 -56.891320 16.261794 -64.391929 0.002475 -129.033871 0.001529 -70.329112 -23.423451 35.225652 -17.118105 -8.496168 0.918034 -2.064631 -0.455408 6.653543 0.000003 0.000003 0.000000 -0.000001 0.000002 -0.000002 4.222589 11.839931 -12.932559 0.133518 1.514573 -15.464855 0.000003 -0.000000 0.000000 0.000003 0.000000 -0.000000 6.604623 4.740234 -30.262171 -0.269514 -1.030620 -24.039590 0.000001 -0.000002 0.000000 0.000002 0.000003 0.000001 1.158081 5.722513 -40.546858 -0.616050 -1.539810 -27.490764 0.000000 -0.000000 -0.000001 0.000001 -0.000000 -0.000001 -0.653138 7.015230 -56.517507 -1.465117 -4.670595 -28.926527 -0.000002 0.000000 -0.000002 -0.000002 -0.000002 -0.000001 -16.798913 11.947210 -22.636796 -50.019535 8.213746 67.827651 -0.017770 54.146752 0.014544 49.232321 -8.329224 -12.991862 8.724833 6.192983 31.582761 -2.458189 -0.691974 -4.513281 0.000009 0.000009 -0.000011 0.000000 0.000000 0.000004 4.953558 10.448990 -3.765991 0.004577 -0.332630 0.281039 -0.000002 -0.000002 0.000001 0.000000 -0.000002 -0.000000 9.144894 -2.486124 -8.160416 0.001562 -0.146651 0.013988 -0.000002 -0.000014 0.000002 0.000000 -0.000001 0.000001 0.718034 -12.678219 -9.163557 0.010943 -1.176897 0.048066 0.000000 -0.000000 0.000003 0.000000 -0.000000 0.000001 5.030428 -26.061659 0.773889 -0.111754 -1.375292 0.000027 -0.000000 -0.000001 -0.000002 -0.000001 0.000001 -0.000000 -102.910474 -36.716355 38.696826 32.888177 -0.454197 -2.982918 48.812678 -8.692671 -46.612769 0.026879 4.994029 -16.465406 0.000000 0.000001 0.000001 -40.878604 11.361388 -59.937731 108.137590 31.009083 18.138944 16.484875 18.321916 -17.526585 40.108875 68.648981 29.890663 -0.000000 0.000002 0.000000 
0.901789 29.970650 -2.846962 40.547059 13.747901 1.971893 9.974895 2.913235 -5.179609 19.833104 -2.383834 3.197254 19.833094 -2.383841 3.197257 -27.342767 4.404270 2.501427 -38.465197 29.210725 10.005418 0.000001 -0.000001 -0.000001 1.881450 8.199368 15.184168 -60.490334 24.349018 -64.009787 -0.012826 -130.424115 -0.010183 -65.564147 -19.497595 26.689982 -18.507653 -12.035333 -0.661060 -1.721661 -0.955346 8.044803 0.000002 -0.000002 0.000000 0.000001 0.000001 -0.000000 3.643037 11.729305 -8.763651 0.094537 1.429709 -14.228623 -0.000001 -0.000000 -0.000000 0.000001 -0.000001 -0.000000 5.818922 5.000864 -26.711488 -0.269580 -1.049658 -24.039264 -0.000003 -0.000002 0.000004 -0.000003 0.000002 0.000003 1.736039 6.053592 -38.246583 -0.472677 -1.291738 -24.554904 0.000000 -0.000000 -0.000001 -0.000000 -0.000001 0.000003 0.013261 6.883124 -57.564008 -1.446713 -4.227658 -27.314017 -0.000002 -0.000001 -0.000001 -0.000000 0.000000 -0.000000 -16.827626 11.241224 -23.024021 -52.040178 9.895663 69.815851 -0.004255 51.914424 0.003493 49.996893 -7.944338 -15.313798 7.718700 6.574531 31.582078 -2.357074 -0.939301 -4.542048 0.000007 0.000008 -0.000012 -0.000000 -0.000000 0.000000 4.943509 10.469145 -3.476949 0.005104 -0.216678 0.023935 -0.000001 -0.000001 0.000001 -0.000000 -0.000001 0.000003 9.155272 -2.418511 -7.880117 0.001788 -0.143341 0.013690 -0.000000 -0.000013 0.000001 0.000000 0.000001 0.000003 0.721048 -12.659685 -8.875408 0.010838 -1.179708 0.048185 0.000000 -0.000000 -0.000001 0.000000 0.000000 -0.000002 5.039084 -26.017575 1.062295 -0.122946 -1.434243 -0.000018 0.000000 -0.000002 0.000001 -0.000001 -0.000000 -0.000002 -102.945308 -36.636827 38.729792 32.990948 -1.123089 -3.305272 48.640280 -8.005244 -45.961982 0.026879 4.994030 -16.465406 -0.000000 0.000000 0.000001 -40.467570 11.420627 -59.612689 107.871500 31.049886 18.163544 15.824380 18.802058 -17.197151 42.301568 66.844807 28.040018 0.000000 0.000001 0.000000 
